<mxfile host="app.diagrams.net" modified="2024-01-08T02:21:38.529Z" agent="Mozilla/5.0 (Macintosh; Intel Mac OS X 10.15; rv:121.0) Gecko/20100101 Firefox/121.0" etag="PnCsm0KOjHYZ7clszyob" version="22.1.17" type="github">
  <diagram name="Page-1" id="mw0iFyNApeCqdu63zmFg">
    <mxGraphModel dx="954" dy="589" grid="1" gridSize="10" guides="1" tooltips="1" connect="1" arrows="1" fold="1" page="1" pageScale="1" pageWidth="850" pageHeight="1100" math="0" shadow="0">
      <root>
        <mxCell id="0" />
        <mxCell id="1" parent="0" />
        <mxCell id="y2jrvJWFAjoQ-YzlYHfK-2" value="" style="shape=flexArrow;endArrow=classic;startArrow=classic;html=1;rounded=0;" edge="1" parent="1">
          <mxGeometry width="100" height="100" relative="1" as="geometry">
            <mxPoint x="379.5" y="390" as="sourcePoint" />
            <mxPoint x="379.5" y="130" as="targetPoint" />
          </mxGeometry>
        </mxCell>
        <mxCell id="y2jrvJWFAjoQ-YzlYHfK-1" value="" style="ellipse;shape=cloud;whiteSpace=wrap;html=1;" vertex="1" parent="1">
          <mxGeometry x="320" y="210" width="120" height="80" as="geometry" />
        </mxCell>
        <mxCell id="y2jrvJWFAjoQ-YzlYHfK-3" value="&lt;div&gt;Network&lt;/div&gt;&lt;div&gt;(Internet)&lt;br&gt;&lt;/div&gt;" style="text;strokeColor=none;align=center;fillColor=none;html=1;verticalAlign=middle;whiteSpace=wrap;rounded=0;" vertex="1" parent="1">
          <mxGeometry x="350" y="90" width="60" height="30" as="geometry" />
        </mxCell>
        <mxCell id="y2jrvJWFAjoQ-YzlYHfK-4" value="" style="image;points=[];aspect=fixed;html=1;align=center;shadow=0;dashed=0;image=img/lib/allied_telesis/computer_and_terminals/Personal_Computer.svg;" vertex="1" parent="1">
          <mxGeometry x="220" y="220" width="45.6" height="61.800000000000004" as="geometry" />
        </mxCell>
        <mxCell id="y2jrvJWFAjoQ-YzlYHfK-5" value="" style="image;html=1;image=img/lib/clip_art/computers/Server_Rack_128x128.png" vertex="1" parent="1">
          <mxGeometry x="490" y="220" width="80" height="80" as="geometry" />
        </mxCell>
      </root>
    </mxGraphModel>
  </diagram>
</mxfile>
